<svg width="16" height="16" viewBox="0 0 16 16" fill="none" xmlns="http://www.w3.org/2000/svg">
<mask id="mask0_341_14487" style="mask-type:alpha" maskUnits="userSpaceOnUse" x="0" y="0" width="16" height="16">
<rect width="16" height="16" fill="#D9D9D9"/>
</mask>
<g mask="url(#mask0_341_14487)">
<path d="M8 14.0003C6.32222 14.0003 4.90267 13.4196 3.74133 12.2583C2.58044 11.0974 2 9.67804 2 8.00026C2 6.46693 2.5 5.13626 3.5 4.00826C4.5 2.88071 5.77778 2.22248 7.33333 2.03359C7.61111 2.00026 7.82778 2.10026 7.98333 2.33359C8.13889 2.56693 8.13333 2.81137 7.96667 3.06693C7.77778 3.35582 7.636 3.66137 7.54133 3.98359C7.44711 4.30582 7.4 4.6447 7.4 5.00026C7.4 6.00026 7.75 6.85026 8.45 7.55026C9.15 8.25026 10 8.60026 11 8.60026C11.3444 8.60026 11.6862 8.55026 12.0253 8.45026C12.364 8.35026 12.6667 8.21137 12.9333 8.03359C13.1667 7.87804 13.4056 7.86959 13.65 8.00826C13.8944 8.14737 14 8.36693 13.9667 8.66693C13.8111 10.2003 13.1584 11.4725 12.0087 12.4836C10.8584 13.4947 9.52222 14.0003 8 14.0003Z" fill="white"/>
</g>
</svg>
