<svg width="16" height="16" viewBox="0 0 16 16" fill="none" xmlns="http://www.w3.org/2000/svg">
<mask id="mask0_341_14490" style="mask-type:alpha" maskUnits="userSpaceOnUse" x="0" y="0" width="16" height="16">
<rect width="16" height="16" fill="#D9D9D9"/>
</mask>
<g mask="url(#mask0_341_14490)">
<path d="M7.99996 2.66699C7.81107 2.66699 7.65285 2.60299 7.52529 2.47499C7.39729 2.34744 7.33329 2.18921 7.33329 2.00033V1.33366C7.33329 1.14477 7.39729 0.986326 7.52529 0.858325C7.65285 0.73077 7.81107 0.666992 7.99996 0.666992C8.18885 0.666992 8.34729 0.73077 8.47529 0.858325C8.60285 0.986326 8.66663 1.14477 8.66663 1.33366V2.00033C8.66663 2.18921 8.60285 2.34744 8.47529 2.47499C8.34729 2.60299 8.18885 2.66699 7.99996 2.66699ZM7.99996 15.3337C7.81107 15.3337 7.65285 15.2697 7.52529 15.1417C7.39729 15.0141 7.33329 14.8559 7.33329 14.667V14.0003C7.33329 13.8114 7.39729 13.6532 7.52529 13.5257C7.65285 13.3977 7.81107 13.3337 7.99996 13.3337C8.18885 13.3337 8.34729 13.3977 8.47529 13.5257C8.60285 13.6532 8.66663 13.8114 8.66663 14.0003V14.667C8.66663 14.8559 8.60285 15.0141 8.47529 15.1417C8.34729 15.2697 8.18885 15.3337 7.99996 15.3337ZM14 8.66699C13.8111 8.66699 13.6528 8.60299 13.5253 8.47499C13.3973 8.34744 13.3333 8.18921 13.3333 8.00033C13.3333 7.81144 13.3973 7.65299 13.5253 7.52499C13.6528 7.39744 13.8111 7.33366 14 7.33366H14.6666C14.8555 7.33366 15.0137 7.39744 15.1413 7.52499C15.2693 7.65299 15.3333 7.81144 15.3333 8.00033C15.3333 8.18921 15.2693 8.34744 15.1413 8.47499C15.0137 8.60299 14.8555 8.66699 14.6666 8.66699H14ZM1.33329 8.66699C1.1444 8.66699 0.986182 8.60299 0.858626 8.47499C0.730626 8.34744 0.666626 8.18921 0.666626 8.00033C0.666626 7.81144 0.730626 7.65299 0.858626 7.52499C0.986182 7.39744 1.1444 7.33366 1.33329 7.33366H1.99996C2.18885 7.33366 2.34729 7.39744 2.47529 7.52499C2.60285 7.65299 2.66663 7.81144 2.66663 8.00033C2.66663 8.18921 2.60285 8.34744 2.47529 8.47499C2.34729 8.60299 2.18885 8.66699 1.99996 8.66699H1.33329ZM12 4.00033C11.8777 3.8781 11.8166 3.72521 11.8166 3.54166C11.8166 3.35855 11.8777 3.20033 12 3.06699L12.2333 2.81699C12.3555 2.68366 12.5111 2.61699 12.7 2.61699C12.8888 2.61699 13.05 2.68366 13.1833 2.81699C13.3166 2.95033 13.3833 3.11144 13.3833 3.30033C13.3833 3.48921 13.3166 3.65033 13.1833 3.78366L12.9333 4.01699C12.8 4.13921 12.6444 4.20033 12.4666 4.20033C12.2888 4.20033 12.1333 4.13366 12 4.00033ZM2.81663 13.1837C2.68329 13.0503 2.61663 12.8892 2.61663 12.7003C2.61663 12.5114 2.68329 12.3503 2.81663 12.217L3.06663 11.9837C3.19996 11.8614 3.35552 11.8003 3.53329 11.8003C3.71107 11.8003 3.86663 11.867 3.99996 12.0003C4.12218 12.1225 4.18618 12.2781 4.19196 12.467C4.19729 12.6559 4.13329 12.8114 3.99996 12.9337L3.76663 13.1837C3.6444 13.317 3.48885 13.3837 3.29996 13.3837C3.11107 13.3837 2.94996 13.317 2.81663 13.1837ZM12.2166 13.1837L11.9833 12.9337C11.8611 12.8003 11.8 12.6448 11.8 12.467C11.8 12.2892 11.8666 12.1337 12 12.0003C12.1222 11.8781 12.2777 11.8141 12.4666 11.8083C12.6555 11.803 12.8111 11.867 12.9333 12.0003L13.1833 12.2337C13.3166 12.3559 13.3833 12.5114 13.3833 12.7003C13.3833 12.8892 13.3166 13.0503 13.1833 13.1837C13.05 13.317 12.8888 13.3837 12.7 13.3837C12.5111 13.3837 12.35 13.317 12.2166 13.1837ZM3.06663 4.00033L2.81663 3.76699C2.68329 3.64477 2.61663 3.48921 2.61663 3.30033C2.61663 3.11144 2.68329 2.95033 2.81663 2.81699C2.94996 2.68366 3.11107 2.61699 3.29996 2.61699C3.48885 2.61699 3.64996 2.68366 3.78329 2.81699L4.01663 3.06699C4.13885 3.20033 4.19996 3.35588 4.19996 3.53366C4.19996 3.71144 4.13329 3.86699 3.99996 4.00033C3.87774 4.12255 3.72485 4.18366 3.54129 4.18366C3.35818 4.18366 3.19996 4.12255 3.06663 4.00033ZM7.99996 12.0003C6.88885 12.0003 5.9444 11.6114 5.16663 10.8337C4.38885 10.0559 3.99996 9.11144 3.99996 8.00033C3.99996 6.88921 4.38885 5.94477 5.16663 5.16699C5.9444 4.38921 6.88885 4.00033 7.99996 4.00033C9.11107 4.00033 10.0555 4.38921 10.8333 5.16699C11.6111 5.94477 12 6.88921 12 8.00033C12 9.11144 11.6111 10.0559 10.8333 10.8337C10.0555 11.6114 9.11107 12.0003 7.99996 12.0003Z" fill="white"/>
</g>
</svg>
