<svg width="20" height="20" viewBox="0 0 20 20" fill="none" xmlns="http://www.w3.org/2000/svg">
<path d="M19.9929 10.2394C19.9943 9.55919 19.9354 8.88016 19.8168 8.20996H10.2083V12.0555H15.7108C15.598 12.6699 15.3594 13.2556 15.0095 13.7771C14.6595 14.2986 14.2053 14.7453 13.6745 15.09V17.5853H16.9571C17.9595 16.6374 18.7477 15.4937 19.2706 14.2283C19.7936 12.9629 20.0397 11.6039 19.9929 10.2394Z" fill="#4285F4"/>
<path d="M10.1861 19.9962C12.668 20.0647 15.0832 19.2025 16.939 17.5856L13.6563 15.0903C12.8658 15.5863 11.9704 15.8992 11.038 16.0054C10.1057 16.1115 9.16095 16.008 8.27549 15.7028C7.39003 15.3976 6.58714 14.8987 5.92776 14.2439C5.26839 13.5891 4.76985 12.7957 4.46999 11.9238H1.08264V14.4958C1.93098 16.1495 3.23148 17.5396 4.83897 18.5109C6.44647 19.4822 8.29771 19.9964 10.1861 19.9962Z" fill="#34A853"/>
<path d="M4.46723 11.9148C4.04047 10.6746 4.04047 9.33143 4.46723 8.09122V5.5166H1.08328C0.370946 6.90811 0 8.44347 0 10.0003C0 11.5572 0.370946 13.0926 1.08328 14.4841L4.46723 11.9148Z" fill="#FBBC04"/>
<path d="M10.199 3.95424C11.6533 3.93101 13.0587 4.46857 14.1126 5.45116L17.0253 2.59995C15.1775 0.902579 12.7318 -0.0287731 10.1996 0.000677757C8.30867 -0.000314952 6.45464 0.514051 4.84467 1.48632C3.2347 2.45858 1.9322 3.85046 1.08264 5.50647L4.47135 8.07842C4.86688 6.89064 5.63201 5.85412 6.65929 5.11443C7.68657 4.37473 8.9244 3.96901 10.199 3.95424Z" fill="#EA4335"/>
</svg>
